<svg width="375" height="812" viewBox="0 0 375 812" fill="none" xmlns="http://www.w3.org/2000/svg">
<g opacity="0.7">
<mask id="mask0_898_11241" style="mask-type:alpha" maskUnits="userSpaceOnUse" x="0" y="0" width="375" height="812">
<rect width="375" height="812" fill="#C4C4C4"/>
</mask>
<g mask="url(#mask0_898_11241)">
<path opacity="0.15" d="M214.356 135.44L-111.78 385.293L-144.495 876.87L427.91 1126.45L459.881 416.759L392.956 235.814C359.857 146.326 267.731 94.5503 214.356 135.44Z" fill="url(#paint0_linear_898_11241)"/>
<path opacity="0.15" d="M224.852 -11.8613L-101.284 237.991L-133.999 729.568L438.406 979.151L470.377 269.457L403.452 88.5127C370.353 -0.976065 278.227 -52.7515 224.852 -11.8613Z" fill="url(#paint1_linear_898_11241)"/>
<path opacity="0.15" d="M216.135 352.779L-72.7275 574.815L-99.9378 983.971L375.416 1191.24L402.026 600.547L335.287 419.732C313.237 359.992 251.721 325.425 216.135 352.779Z" fill="url(#paint2_linear_898_11241)"/>
</g>
</g>
<defs>
<linearGradient id="paint0_linear_898_11241" x1="351.406" y1="-151.226" x2="-262.149" y2="241.672" gradientUnits="userSpaceOnUse">
<stop stop-color="white"/>
<stop offset="1" stop-color="white" stop-opacity="0"/>
</linearGradient>
<linearGradient id="paint1_linear_898_11241" x1="361.902" y1="-298.528" x2="-251.653" y2="94.3704" gradientUnits="userSpaceOnUse">
<stop stop-color="white"/>
<stop offset="1" stop-color="white" stop-opacity="0"/>
</linearGradient>
<linearGradient id="paint2_linear_898_11241" x1="311.986" y1="127.911" x2="-198.38" y2="454.175" gradientUnits="userSpaceOnUse">
<stop stop-color="white"/>
<stop offset="1" stop-color="white" stop-opacity="0"/>
</linearGradient>
</defs>
</svg>
